<svg width="24" height="24" xmlns="http://www.w3.org/2000/svg" fill-rule="evenodd" clip-rule="evenodd"><path d="M13 24h-2v-5.047c-5.047-.478-9-4.536-9-9.453 0-5.238 4.486-9.5 10-9.5s10 4.262 10 9.5c0 4.918-3.954 8.975-9 9.453v5.047zm0-7.058c3.935-.463 6.989-3.624 6.989-7.442 0-4.136-3.584-7.5-7.989-7.5-4.405 0-7.989 3.364-7.989 7.5 0 3.818 3.054 6.978 6.989 7.441l-.001-2.355-5.216-3.804.589-.808 4.627 3.374v-2.96l-3.407-2.508.593-.806 2.814 2.072v-2.564l-1.621-1.161.582-.813 2.039 1.439 2.048-1.439.582.813-1.63 1.167v2.564l2.823-2.078.593.806-3.416 2.514v2.96l4.636-3.38.589.808-5.225 3.81.001 2.35z"/></svg>